<?xml version="1.0" encoding="iso-8859-1"?>
<!-- Generator: Adobe Illustrator 18.0.0, SVG Export Plug-In . SVG Version: 6.00 Build 0)  -->
<!DOCTYPE svg PUBLIC "-//W3C//DTD SVG 1.1//EN" "http://www.w3.org/Graphics/SVG/1.1/DTD/svg11.dtd">
<svg version="1.1" id="Capa_1" xmlns="http://www.w3.org/2000/svg" xmlns:xlink="http://www.w3.org/1999/xlink" x="0px" y="0px"
	 viewBox="0 0 91.823 91.823" style="enable-background:new 0 0 91.823 91.823;" xml:space="preserve">
<g>
	<path style="fill-rule:evenodd;clip-rule:evenodd;fill:#E7962D;" d="M45.912,91.822c25.287,0,45.911-20.624,45.911-45.911
		S71.199,0,45.912,0S0,20.624,0,45.911S20.625,91.822,45.912,91.822z"/>
	<g>
		<path style="fill-rule:evenodd;clip-rule:evenodd;fill:#A1400F;" d="M46.461,89.562C22.407,90.043,19.717,61.665,20.588,47.65
			c1.624-26.131,25.339-36.611,35.021-27.639c10.292,0,15.114,12.783,16.277,27.387C73.435,66.832,66.271,89.165,46.461,89.562z"/>
		<path style="fill-rule:evenodd;clip-rule:evenodd;fill:#FBD9BD;" d="M66.528,78.032l-0.512,9.164
			c-6.072,2.963-12.894,4.626-20.105,4.626c-7.194,0-13.999-1.655-20.06-4.604l-0.513-9.186H66.528z"/>
		<path style="fill-rule:evenodd;clip-rule:evenodd;fill:#FBD9BD;" d="M61.468,84.817l0.6,4.08
			c4.267-1.606,8.232-3.827,11.786-6.557C70.859,75.908,60.273,76.687,61.468,84.817z"/>
		<path style="fill-rule:evenodd;clip-rule:evenodd;fill:#FBD9BD;" d="M30.074,84.817l-0.585,3.979
			c-4.248-1.628-8.194-3.868-11.726-6.614C20.854,75.92,31.259,76.753,30.074,84.817z"/>
		<path style="fill-rule:evenodd;clip-rule:evenodd;fill:#8599B4;" d="M30.768,89.264l7.131-11.231h15.977l7.139,11.244
			c-4.73,1.648-9.812,2.546-15.104,2.546C40.604,91.822,35.51,90.919,30.768,89.264z"/>
		<path style="fill-rule:evenodd;clip-rule:evenodd;fill:#FBD9BD;" d="M53.876,57.313v20.72c0,12.979-15.977,12.723-15.977,0v-20.72
			C37.899,46.744,53.876,46.745,53.876,57.313z"/>
		<path style="fill-rule:evenodd;clip-rule:evenodd;fill:#ECC2A0;" d="M53.876,57.313v13.105c-3.023,2.365-5.937,3.689-7.989,3.689
			c-2.051,0-4.965-1.324-7.988-3.689V57.313C37.899,46.744,53.876,46.744,53.876,57.313z"/>
		<path style="fill-rule:evenodd;clip-rule:evenodd;fill:#FBD9BD;" d="M45.888,70.852c-5.201,0-16.19-8.178-19.586-19.89
			c-3.43-11.826,3.029-28.789,19.586-28.789c16.557,0,23.017,16.962,19.586,28.789C62.077,62.674,51.089,70.852,45.888,70.852z"/>
		<path style="fill-rule:evenodd;clip-rule:evenodd;fill:#FF386A;" d="M39.622,59.061c2.651-2.565,4.718-0.642,6.266-0.642
			c1.548,0,3.615-1.924,6.266,0.642C50.729,65.827,41.511,66.036,39.622,59.061z"/>
		<path style="fill-rule:evenodd;clip-rule:evenodd;fill:#FFFFFF;" d="M40.435,59.41c1.45-0.37,8.829-0.445,10.904-0.08
			C49.626,62.485,41.886,62.302,40.435,59.41z"/>
		<path style="fill-rule:evenodd;clip-rule:evenodd;fill:#FF386A;" d="M39.622,59.061c2.65-2.565,4.718-0.642,6.266-0.642
			c1.548,0,3.615-1.924,6.266,0.642C48.101,61.057,42.35,60.124,39.622,59.061z"/>
		
			<ellipse transform="matrix(-0.3946 -0.9188 0.9188 -0.3946 -9.8212 91.6589)" style="fill-rule:evenodd;clip-rule:evenodd;fill:#FBD9BD;" cx="25.283" cy="49.065" rx="5.702" ry="3.297"/>
		
			<ellipse transform="matrix(0.3946 -0.9189 0.9189 0.3946 -4.5487 91.2259)" style="fill-rule:evenodd;clip-rule:evenodd;fill:#FBD9BD;" cx="66.952" cy="49.065" rx="5.702" ry="3.297"/>
		<path style="fill-rule:evenodd;clip-rule:evenodd;fill:#A1400F;" d="M67.055,50.751c6.287-26.95-12.689-31.534-23.76-31.534
			c-12.47,0-21.869,14.799-19.766,32.034c6.652-4.01,12.512-11.931,27.053-24.852c-2.115,3.793-6.238,10.691-20.253,23.195
			c7.542,1.245,21.592-8.262,29.08-18.21C61.198,38.457,63.77,46.199,67.055,50.751z"/>
		<path style="opacity:0.2;fill-rule:evenodd;clip-rule:evenodd;" d="M45.911,16.889c3.746-0.21,7.179,0.808,9.676,3.122
			c10.293,0,15.114,12.783,16.277,27.387c0.854,10.72-0.944,22.319-6.051,30.635h0.693l-0.002,0.038
			c2.776-0.215,5.915,1.217,7.335,4.28c-7.737,5.939-17.419,9.472-27.928,9.472V16.889z"/>
	</g>
</g>
<g>
</g>
<g>
</g>
<g>
</g>
<g>
</g>
<g>
</g>
<g>
</g>
<g>
</g>
<g>
</g>
<g>
</g>
<g>
</g>
<g>
</g>
<g>
</g>
<g>
</g>
<g>
</g>
<g>
</g>
</svg>
